<svg id="Layer_1" data-name="Layer 1" xmlns="http://www.w3.org/2000/svg" xmlns:xlink="http://www.w3.org/1999/xlink" viewBox="0 0 375.14 186.36"><defs><style>.cls-1{fill:url(#linear-gradient);}.cls-2{fill:#f9f9fa;}.cls-2,.cls-8{opacity:0.1;}.cls-3{fill:url(#linear-gradient-2);}.cls-4{fill:url(#linear-gradient-3);}.cls-5{fill:url(#linear-gradient-4);}.cls-6{fill:url(#linear-gradient-5);}.cls-7{fill:#e81e25;}.cls-8{fill:#fdfefe;}.cls-9{font-size:72px;fill:#77c043;font-family:Bauhaus93, "Bauhaus 93";}</style><linearGradient id="linear-gradient" x1="107.77" y1="384.46" x2="235.92" y2="464.45" gradientUnits="userSpaceOnUse"><stop offset="0" stop-color="#27aae1"/><stop offset="0.2" stop-color="#27a6de"/><stop offset="0.39" stop-color="#289bd6"/><stop offset="0.57" stop-color="#2889c9"/><stop offset="0.74" stop-color="#296eb6"/><stop offset="0.91" stop-color="#2a4d9e"/><stop offset="1" stop-color="#2b3990"/></linearGradient><linearGradient id="linear-gradient-2" x1="178.61" y1="385.68" x2="240.21" y2="385.68" gradientUnits="userSpaceOnUse"><stop offset="0" stop-color="#8dc63f"/><stop offset="0.16" stop-color="#64bd44"/><stop offset="0.32" stop-color="#41b549"/><stop offset="0.49" stop-color="#24ae4c"/><stop offset="0.66" stop-color="#10aa4f"/><stop offset="0.83" stop-color="#04a750"/><stop offset="1" stop-color="#00a651"/></linearGradient><linearGradient id="linear-gradient-3" x1="181.06" y1="451.28" x2="245.7" y2="451.28" xlink:href="#linear-gradient-2"/><linearGradient id="linear-gradient-4" x1="97.99" y1="397.56" x2="155.11" y2="397.56" xlink:href="#linear-gradient-2"/><linearGradient id="linear-gradient-5" x1="132.81" y1="447.3" x2="166.11" y2="447.3" xlink:href="#linear-gradient-2"/></defs><path class="cls-1" d="M245.93,424.46c0,2.11-.08,4.21-.23,6.28h0a81,81,0,0,1-23.36,51.59,74.76,74.76,0,0,1-14,11,70.07,70.07,0,0,1-36.49,10.25c-40.92,0-74.08-35.41-74.08-79.1,0-2.06.07-4.11.22-6.13a81.49,81.49,0,0,1,19.43-47.54,80,80,0,0,1,6.82-7,70.61,70.61,0,0,1,98.05,2.68,79.5,79.5,0,0,1,17.92,27.41A83.37,83.37,0,0,1,245.93,424.46Z" transform="translate(-97.77 -317.2)"/><path class="cls-2" d="M234.83,432.69c0,2.12-.08,4.21-.23,6.29h0A82,82,0,0,1,221,478.76a77.16,77.16,0,0,1-9.74,11.81c-.94.94-1.91,1.86-2.9,2.74a70.07,70.07,0,0,1-36.49,10.25c-40.92,0-74.08-35.41-74.08-79.1,0-2.06.07-4.11.22-6.13a81.49,81.49,0,0,1,19.43-47.54,80,80,0,0,1,6.82-7,70,70,0,0,1,57.73-7,73,73,0,0,1,29.22,17.87,79.12,79.12,0,0,1,15.54,21.93q1.29,2.69,2.39,5.48a83.23,83.23,0,0,1,5.21,21.23A86.4,86.4,0,0,1,234.83,432.69Z" transform="translate(-97.77 -317.2)"/><path class="cls-3" d="M240.21,393.93c-4.06,2.09-9.31,3.19-16,2.61-9.82-.87-14.21,4-16.3,8.61.34.61.73,1.26,1.16,1.93,16.65,26-28.62-10.34-28.62-23.09s-12.88-41,28.62-23.09c5.2,2.25,9.54,4.09,13.17,5.62A79.5,79.5,0,0,1,240.21,393.93Z" transform="translate(-97.77 -317.2)"/><path class="cls-4" d="M245.7,430.74h0a81,81,0,0,1-23.36,51.59c-4.32-11.38-9.74-24.71-7-31-10.06-.28-22-1.36-27-3.2-10.08-8.67-9.44-15.58,0-21,3.57-1.84,24.45-14.56,55.29,0A19.63,19.63,0,0,1,245.7,430.74Z" transform="translate(-97.77 -317.2)"/><path class="cls-5" d="M134.73,387.72c-1.46.57-3.12,1.38-4.89,2.27a17.84,17.84,0,0,1,.14,2.21,17.16,17.16,0,0,1-17.3,17,18,18,0,0,1-2.21-.14c-.07.76.49,2.21-.22,2.18-6.82-.3-5.08,2.4-.92,5.47-.22.35-.94.73-.67,1,2.47,2.54,5.48,2.23,8.72-.65,3.17,5.59,14.66,2.24,15.24,3.62.78,1.84-6.83,3.62-15.24,3.62-6.07,0-11.31-.84-13.76-2.06a3.62,3.62,0,0,1-1.06.13c-1.69-.07-3.21-1.46-4.57-4.07a81.49,81.49,0,0,1,19.43-47.54l2,.3a8.82,8.82,0,0,0,7.74,4.93,8.46,8.46,0,0,0,5.87-2.43l1.67.3C159.64,377.09,164.07,381.43,134.73,387.72Z" transform="translate(-97.77 -317.2)"/><path class="cls-6" d="M166.11,452.54c0,10.65-9.82,28.5-12.72,19.29-.43-1.37-.81-3-1.19-4.77-1.06-5-2.12-10.91-4.33-14-4.31,1.09-11.06,2.83-11.57-1.36-1.77-14.5-5.38-21.61-2.28-26.4.8-1.23,1.48-2.55,2.21-3.75a13.12,13.12,0,0,1,5.79-1.38,14.11,14.11,0,0,1,9.5,3.94,2,2,0,0,1-.05.24,2.71,2.71,0,0,1,.41.09,20.86,20.86,0,0,1,2.81,3.33,13.66,13.66,0,0,1,.82,4.82c0,.3,0,.6,0,.89a8.9,8.9,0,0,1,2.57,1.08C162.77,437.41,166.11,444.39,166.11,452.54Z" transform="translate(-97.77 -317.2)"/><path class="cls-7" d="M180,325.32a8.12,8.12,0,1,1-8.12-8.12A8.12,8.12,0,0,1,180,325.32Z" transform="translate(-97.77 -317.2)"/><ellipse class="cls-8" cx="72.29" cy="8.12" rx="6.33" ry="7.92"/><text class="cls-9" transform="translate(169.95 135.07)">bifrost</text></svg>