<svg width="155" height="50" viewBox="0 0 155 50" fill="none" xmlns="http://www.w3.org/2000/svg">
<g clip-path="url(#clip0)">
<path d="M2.24299 9.43367L2.08374 9.44368C2.08691 9.43012 2.09087 9.41676 2.0956 9.40366L2.24299 9.43367Z" fill="#132C33"/>
<path d="M26.7365 44.3468H26.7127C26.6382 44.3468 26.562 44.3468 26.4874 44.3468H26.2841C26.1469 44.3468 26.0097 44.3468 25.8742 44.3368C25.5997 44.3368 25.327 44.3151 25.0542 44.2951C24.7815 44.2751 24.507 44.2551 24.2343 44.2267L23.8243 44.1817C23.6938 44.1667 23.5651 44.15 23.4346 44.1317C23.3042 44.1133 23.1754 44.095 23.0467 44.075L22.7163 44.0233L22.286 43.9466C22.0201 43.8982 21.7524 43.8448 21.4881 43.7798C21.356 43.7515 21.2255 43.7214 21.0934 43.6898L20.7003 43.593C20.2616 43.483 19.8228 43.3579 19.3874 43.2212C19.1514 43.1467 18.9176 43.0683 18.686 42.986C15.9734 42.0414 13.4574 40.6198 11.2608 38.7903C11.1405 38.6919 11.0236 38.5919 10.9067 38.4918L10.8271 38.4218C10.7322 38.3401 10.6407 38.255 10.5475 38.175L10.4832 38.1166C10.3137 37.9665 10.1545 37.8148 9.99525 37.6597C9.71629 37.3929 9.44524 37.1199 9.18208 36.8409C9.11601 36.7708 9.04994 36.7008 8.98557 36.6291C8.81615 36.454 8.66538 36.2772 8.51121 36.0988L8.32825 35.8853C8.26896 35.8136 8.20628 35.7419 8.14698 35.6686C8.08769 35.5952 7.99282 35.4818 7.91828 35.3867L7.74886 35.1716C7.69974 35.1082 7.64891 35.0449 7.60148 34.9798C7.55404 34.9148 7.50152 34.8481 7.4507 34.7814C7.39988 34.7147 7.33889 34.6313 7.28129 34.5546C7.14407 34.3661 7.00854 34.176 6.87809 33.9843C6.80863 33.8825 6.74087 33.7808 6.67311 33.6791C6.60534 33.5774 6.50369 33.4256 6.42746 33.2972C4.30412 29.9534 3.09332 26.1268 2.91218 22.1876C2.91218 22.0558 2.90032 21.9258 2.89693 21.794C2.89693 21.5622 2.88507 21.3288 2.88507 21.097C2.88507 21.0319 2.88507 20.9686 2.88507 20.9052C2.88507 20.8418 2.88507 20.7384 2.88507 20.645C2.88592 20.6328 2.88592 20.6206 2.88507 20.6084C2.88507 20.3349 2.90032 20.063 2.91726 19.7896C2.91726 19.6478 2.9342 19.5044 2.94436 19.3626C2.94353 19.3571 2.94353 19.3515 2.94436 19.346C2.95453 19.2076 2.96639 19.0675 2.97994 18.9291C2.99349 18.7907 3.00705 18.6539 3.02399 18.5172C3.02399 18.4955 3.02399 18.4738 3.02399 18.4521C3.03754 18.3387 3.05109 18.2253 3.06634 18.1103C3.06634 18.0903 3.06634 18.0702 3.07481 18.0502C3.09006 17.9318 3.107 17.8151 3.12394 17.6967L3.13919 17.5966C3.15443 17.4983 3.16968 17.3999 3.18662 17.3031C3.18662 17.2598 3.20356 17.2164 3.21034 17.1731C3.2222 17.1014 3.23406 17.0313 3.24931 16.9613C3.26625 16.8596 3.28657 16.7578 3.3069 16.6561C3.32723 16.5544 3.35265 16.426 3.37636 16.3126L3.41363 16.1458C3.43396 16.0508 3.45599 15.9574 3.47632 15.864C3.47787 15.8568 3.47787 15.8495 3.47632 15.8423C3.5373 15.5788 3.60507 15.3187 3.67791 15.0585C3.71349 14.9268 3.75076 14.7951 3.79142 14.6633L3.9998 14.6516C19.1706 17.7651 28.5847 27.4772 33.2215 42.6675C33.2469 42.9193 33.2723 43.1678 33.2944 43.4296C31.1617 44.0312 28.9549 44.3398 26.7365 44.3468Z" fill="#132C33"/>
<path d="M50 21.3704C49.9994 26.3258 48.3912 31.1515 45.4097 35.1443C42.4282 39.1372 38.2293 42.0884 33.4248 43.568C33.3977 43.4279 33.3706 43.2879 33.3418 43.1478C33.2943 42.981 33.2452 42.8143 33.1961 42.6475L33.2266 42.9193C28.5746 27.6323 19.1299 17.8534 3.9066 14.7167L4.07602 14.7083L3.75244 14.685L3.76599 14.6416C7.32061 14.0618 10.5653 12.2986 12.9579 9.64661C15.3504 6.99467 16.7457 3.61472 16.9106 0.0717074L17.08 0C19.6814 2.17043 22.9808 3.36168 26.3908 3.36168C29.8009 3.36168 33.1003 2.17043 35.7017 0C39.9473 1.79493 43.5648 4.77623 46.1062 8.57474C48.6477 12.3733 50.0015 16.8221 50 21.3704Z" fill="#0A81AB"/>
<path d="M33.4248 43.568C33.3943 43.4596 33.3605 43.3529 33.3283 43.2462C33.2808 43.0794 33.23 42.9127 33.1809 42.7459C28.5204 27.5039 19.0418 17.7651 3.75757 14.655C20.8545 15.814 30.1247 26.1315 33.4248 43.568Z" fill="#352714"/>
<path d="M0 9.62213L0.325269 9.64548H0.155858L0 9.62213Z" fill="black"/>
<path opacity="0.5" d="M25.6166 39.3156C25.8555 39.3073 26.0944 39.2939 26.3332 39.2773C26.0944 39.2939 25.8555 39.3056 25.6166 39.3156Z" fill="#132C33"/>
<path opacity="0.5" d="M24.7442 39.334C24.9441 39.334 25.1457 39.334 25.3456 39.3223C25.1914 39.3223 25.0373 39.3323 24.8831 39.334H24.7442Z" fill="#132C33"/>
<path opacity="0.5" d="M2.02105 9.66049C1.98209 9.79223 1.94312 9.92398 1.90924 10.0557C1.94425 9.92453 1.98152 9.79279 2.02105 9.66049Z" fill="#132C33"/>
<path opacity="0.5" d="M27.2447 48.9778C27.3192 49.3113 27.3887 49.6598 27.4564 50.0067C27.409 49.8399 27.3599 49.6731 27.3108 49.5147C27.2938 49.328 27.2718 49.1445 27.2447 48.9778Z" fill="black"/>
<path opacity="0.5" d="M28.1426 44.3885C29.785 44.2719 31.4106 43.9869 32.9928 43.538C32.9708 43.2829 32.9454 43.0277 32.92 42.7759C32.9911 43.006 33.0589 43.2378 33.1267 43.4696C33.0301 42.9693 32.9301 42.4691 32.8234 41.9688C32.859 42.2356 32.8895 42.5041 32.92 42.7726C28.3239 27.5973 18.9927 17.8785 3.95068 14.7567L3.74569 14.7667C3.76602 14.695 3.78466 14.6233 3.80668 14.5516H3.75586C3.16518 16.5639 2.85402 18.6456 2.83087 20.7401C2.83087 20.8268 2.83087 20.9068 2.83087 21.0002C2.84375 27.1563 5.31011 33.0615 9.69968 37.4464C14.0892 41.8312 20.0515 44.3454 26.3045 44.4485H26.4739C26.6755 44.4485 26.8771 44.4485 27.077 44.4368C26.9228 44.4368 26.7687 44.4469 26.6128 44.4485C28.8976 44.458 31.1723 44.1486 33.3689 43.5297C33.3689 43.4996 33.3689 43.468 33.3605 43.4379C31.6633 43.9482 29.9128 44.2671 28.1426 44.3885ZM28.0596 44.3885C27.8207 44.4035 27.5818 44.4185 27.343 44.4268C27.5835 44.4218 27.8207 44.4102 28.0596 44.3935V44.3885Z" fill="#132C33"/>
<path opacity="0.5" d="M31.7747 38.3467C31.7747 38.3267 31.7629 38.3067 31.7561 38.2867C31.7663 38.305 31.7713 38.3267 31.7747 38.3467Z" fill="black"/>
</g>
<path d="M71.8665 11.2C72.5065 11.16 73.2565 11.13 74.1165 11.11C74.9765 11.07 75.7665 11.05 76.4865 11.05C78.2665 11.05 79.6965 11.49 80.7765 12.37C81.8565 13.23 82.3965 14.51 82.3965 16.21C82.3965 17.01 82.2265 17.74 81.8865 18.4C81.5665 19.04 81.0565 19.59 80.3565 20.05C81.5565 20.45 82.4965 21.08 83.1765 21.94C83.8565 22.8 84.1965 23.89 84.1965 25.21C84.1965 26.05 84.0465 26.84 83.7465 27.58C83.4465 28.32 82.9865 28.97 82.3665 29.53C81.7465 30.09 80.9765 30.54 80.0565 30.88C79.1365 31.2 78.0565 31.36 76.8165 31.36C75.8365 31.36 74.9265 31.32 74.0865 31.24C73.2465 31.18 72.5065 31.1 71.8665 31V11.2ZM76.7265 29.38C78.3465 29.38 79.5765 29.01 80.4165 28.27C81.2765 27.51 81.7065 26.41 81.7065 24.97C81.7065 23.83 81.3165 22.93 80.5365 22.27C79.7765 21.59 78.4865 21.25 76.6665 21.25C76.2265 21.25 75.7865 21.26 75.3465 21.28C74.9265 21.28 74.5165 21.29 74.1165 21.31V29.29C74.8965 29.35 75.7665 29.38 76.7265 29.38ZM75.9465 19.54C77.2065 19.54 78.1765 19.22 78.8565 18.58C79.5565 17.94 79.9065 17.07 79.9065 15.97C79.9065 15.09 79.6665 14.38 79.1865 13.84C78.7065 13.3 77.8665 13.03 76.6665 13.03C76.2265 13.03 75.7865 13.04 75.3465 13.06C74.9265 13.06 74.5165 13.07 74.1165 13.09V19.51C74.3965 19.53 74.6865 19.54 74.9865 19.54C75.3065 19.54 75.6265 19.54 75.9465 19.54ZM89.9478 31H87.8478V17.2H89.9478V31ZM87.3978 12.16C87.3978 11.76 87.5378 11.4 87.8178 11.08C88.1178 10.76 88.4778 10.6 88.8978 10.6C89.2978 10.6 89.6578 10.76 89.9778 11.08C90.2978 11.4 90.4578 11.76 90.4578 12.16C90.4578 12.58 90.2978 12.94 89.9778 13.24C89.6578 13.52 89.2978 13.66 88.8978 13.66C88.4778 13.66 88.1178 13.52 87.8178 13.24C87.5378 12.94 87.3978 12.58 87.3978 12.16Z" fill="#0F81EA"/>
<path d="M95.3354 18.61H93.0254V17.5L95.3354 17.23C95.3354 16.11 95.3654 15.15 95.4254 14.35C95.5054 13.55 95.6054 12.88 95.7254 12.34C95.8454 11.78 95.9754 11.33 96.1154 10.99C96.2754 10.63 96.4254 10.34 96.5654 10.12C96.9454 9.56 97.4154 9.18 97.9754 8.98C98.5354 8.76 99.1154 8.65 99.7154 8.65C99.7954 8.65 99.9354 8.66 100.135 8.68C100.335 8.68 100.555 8.7 100.795 8.74C101.055 8.76 101.315 8.81 101.575 8.89C101.835 8.95 102.085 9.04 102.325 9.16L101.815 10.93C101.755 10.93 101.615 10.9 101.395 10.84C101.175 10.76 100.925 10.68 100.645 10.6C100.385 10.5 100.095 10.41 99.7754 10.33C99.4754 10.25 99.2054 10.21 98.9654 10.21C98.6654 10.21 98.4154 10.3 98.2154 10.48C98.0154 10.64 97.8554 10.92 97.7354 11.32C97.6354 11.7 97.5554 12.21 97.4954 12.85C97.4554 13.49 97.4354 14.28 97.4354 15.22V17.2H100.675V18.61H97.4354V31H95.3354V18.61ZM110.991 19.42C110.671 19.24 110.351 19.1 110.031 19C109.711 18.88 109.401 18.82 109.101 18.82C108.701 18.82 108.321 18.93 107.961 19.15C107.601 19.37 107.271 19.67 106.971 20.05C106.671 20.43 106.401 20.87 106.161 21.37C105.941 21.87 105.771 22.39 105.651 22.93V31H103.551V17.2H105.201L105.441 20.23H105.561C105.701 19.77 105.881 19.33 106.101 18.91C106.341 18.49 106.621 18.12 106.941 17.8C107.281 17.48 107.661 17.23 108.081 17.05C108.501 16.85 108.981 16.75 109.521 16.75C109.901 16.75 110.301 16.82 110.721 16.96C111.141 17.08 111.441 17.24 111.621 17.44L110.991 19.42ZM120.041 16.75C121.261 16.75 122.311 16.96 123.191 17.38C124.071 17.78 124.791 18.33 125.351 19.03C125.931 19.71 126.351 20.5 126.611 21.4C126.891 22.28 127.031 23.21 127.031 24.19C127.031 25.17 126.891 26.1 126.611 26.98C126.351 27.84 125.941 28.6 125.381 29.26C124.821 29.9 124.101 30.41 123.221 30.79C122.361 31.17 121.341 31.36 120.161 31.36C118.941 31.36 117.881 31.16 116.981 30.76C116.101 30.36 115.371 29.83 114.791 29.17C114.211 28.49 113.781 27.71 113.501 26.83C113.221 25.95 113.081 25.02 113.081 24.04C113.081 23.06 113.221 22.13 113.501 21.25C113.781 20.37 114.201 19.6 114.761 18.94C115.341 18.26 116.071 17.73 116.951 17.35C117.831 16.95 118.861 16.75 120.041 16.75ZM120.131 29.77C120.931 29.77 121.621 29.62 122.201 29.32C122.801 29.02 123.291 28.62 123.671 28.12C124.071 27.6 124.361 27.01 124.541 26.35C124.721 25.67 124.811 24.96 124.811 24.22C124.811 23.46 124.711 22.73 124.511 22.03C124.331 21.33 124.041 20.72 123.641 20.2C123.241 19.66 122.731 19.23 122.111 18.91C121.511 18.59 120.791 18.43 119.951 18.43C119.131 18.43 118.431 18.58 117.851 18.88C117.271 19.18 116.791 19.58 116.411 20.08C116.031 20.58 115.751 21.17 115.571 21.85C115.391 22.51 115.301 23.21 115.301 23.95C115.301 24.71 115.391 25.44 115.571 26.14C115.771 26.84 116.061 27.46 116.441 28C116.841 28.54 117.341 28.97 117.941 29.29C118.561 29.61 119.291 29.77 120.131 29.77ZM134.847 18.43C133.887 18.43 133.187 18.61 132.747 18.97C132.327 19.31 132.117 19.78 132.117 20.38C132.117 20.58 132.147 20.79 132.207 21.01C132.267 21.23 132.377 21.44 132.537 21.64C132.717 21.82 132.947 22 133.227 22.18C133.527 22.34 133.917 22.47 134.397 22.57L136.527 23.05C137.367 23.23 138.037 23.48 138.537 23.8C139.057 24.1 139.457 24.43 139.737 24.79C140.017 25.15 140.197 25.52 140.277 25.9C140.377 26.26 140.427 26.6 140.427 26.92C140.427 27.54 140.297 28.12 140.037 28.66C139.797 29.2 139.437 29.67 138.957 30.07C138.497 30.47 137.927 30.78 137.247 31C136.567 31.24 135.807 31.36 134.967 31.36C133.907 31.36 132.927 31.21 132.027 30.91C131.127 30.59 130.407 30.24 129.867 29.86L130.407 27.91C131.127 28.57 131.927 29.05 132.807 29.35C133.687 29.65 134.477 29.8 135.177 29.8C136.177 29.8 136.937 29.56 137.457 29.08C137.977 28.58 138.237 28.06 138.237 27.52C138.237 27.34 138.227 27.14 138.207 26.92C138.187 26.68 138.107 26.44 137.967 26.2C137.827 25.96 137.617 25.74 137.337 25.54C137.057 25.32 136.657 25.15 136.137 25.03L133.257 24.31C132.597 24.15 132.057 23.94 131.637 23.68C131.217 23.42 130.887 23.14 130.647 22.84C130.407 22.52 130.237 22.19 130.137 21.85C130.037 21.49 129.987 21.13 129.987 20.77C129.987 19.55 130.437 18.58 131.337 17.86C132.257 17.12 133.477 16.75 134.997 16.75C135.777 16.75 136.617 16.86 137.517 17.08C138.417 17.28 139.177 17.58 139.797 17.98L139.227 19.78C138.827 19.44 138.227 19.13 137.427 18.85C136.647 18.57 135.787 18.43 134.847 18.43ZM144.669 18.61H142.359V17.5L144.729 17.2L145.179 13.03H146.769V17.2H150.009V18.61H146.769V28.18C146.769 28.82 146.859 29.24 147.039 29.44C147.239 29.64 147.539 29.74 147.939 29.74C148.399 29.74 148.809 29.67 149.169 29.53C149.529 29.39 149.849 29.22 150.129 29.02L150.549 30.61C150.209 30.77 149.759 30.93 149.199 31.09C148.659 31.25 148.059 31.33 147.399 31.33C146.759 31.33 146.259 31.24 145.899 31.06C145.539 30.88 145.269 30.64 145.089 30.34C144.909 30.04 144.789 29.71 144.729 29.35C144.689 28.97 144.669 28.6 144.669 28.24V18.61Z" fill="#D8E3E7"/>
<defs>
<clipPath id="clip0">
<rect width="50" height="50" fill="white"/>
</clipPath>
</defs>
</svg>
