<svg id="Layer_1" data-name="Layer 1" xmlns="http://www.w3.org/2000/svg" xmlns:xlink="http://www.w3.org/1999/xlink" viewBox="0 0 413.92 520.64"><defs><style>.cls-1{fill:url(#linear-gradient);}.cls-2{fill:#f9f9fa;}.cls-2,.cls-8{opacity:0.1;}.cls-3{fill:url(#linear-gradient-2);}.cls-4{fill:url(#linear-gradient-3);}.cls-5{fill:url(#linear-gradient-4);}.cls-6{fill:url(#linear-gradient-5);}.cls-7{fill:#e81e25;}.cls-8{fill:#fdfefe;}</style><linearGradient id="linear-gradient" x1="114.04" y1="426.27" x2="472.04" y2="649.73" gradientUnits="userSpaceOnUse"><stop offset="0" stop-color="#27aae1"/><stop offset="0.2" stop-color="#27a6de"/><stop offset="0.39" stop-color="#289bd6"/><stop offset="0.57" stop-color="#2889c9"/><stop offset="0.74" stop-color="#296eb6"/><stop offset="0.91" stop-color="#2a4d9e"/><stop offset="1" stop-color="#2b3990"/></linearGradient><linearGradient id="linear-gradient-2" x1="311.93" y1="429.65" x2="484.03" y2="429.65" gradientUnits="userSpaceOnUse"><stop offset="0" stop-color="#8dc63f"/><stop offset="0.16" stop-color="#64bd44"/><stop offset="0.32" stop-color="#41b549"/><stop offset="0.49" stop-color="#24ae4c"/><stop offset="0.66" stop-color="#10aa4f"/><stop offset="0.83" stop-color="#04a750"/><stop offset="1" stop-color="#00a651"/></linearGradient><linearGradient id="linear-gradient-3" x1="318.77" y1="612.92" x2="499.36" y2="612.92" xlink:href="#linear-gradient-2"/><linearGradient id="linear-gradient-4" x1="86.69" y1="462.85" x2="246.28" y2="462.85" xlink:href="#linear-gradient-2"/><linearGradient id="linear-gradient-5" x1="183.97" y1="601.81" x2="277" y2="601.81" xlink:href="#linear-gradient-2"/></defs><path class="cls-1" d="M500,538q0,8.87-.64,17.56h0c-4.19,56.79-28.47,107.53-65.26,144.14A208.34,208.34,0,0,1,395,730.35,195.87,195.87,0,0,1,293,759c-114.3,0-207-99-207-221,0-5.76.21-11.48.61-17.13,3.67-51.09,23.61-97.33,54.3-132.8a215.66,215.66,0,0,1,19.06-19.41C196,336.42,242.41,317,293,317c54.44,0,104,22.45,140.91,59.14A222.2,222.2,0,0,1,484,452.72,233.26,233.26,0,0,1,500,538Z" transform="translate(-86.08 -238.36)"/><path class="cls-2" d="M469,561q0,8.87-.64,17.56h0A229.24,229.24,0,0,1,430.3,689.71a218.81,218.81,0,0,1-27.2,33q-4,3.93-8.1,7.64A195.87,195.87,0,0,1,293,759c-114.3,0-207-99-207-221,0-5.76.21-11.48.61-17.13,3.67-51.09,23.61-97.33,54.3-132.8a215.66,215.66,0,0,1,19.06-19.41A195.7,195.7,0,0,1,321.31,349.2,203.84,203.84,0,0,1,403,399.14a221,221,0,0,1,43.4,61.25q3.61,7.5,6.68,15.33A231.42,231.42,0,0,1,467.59,535,239.2,239.2,0,0,1,469,561Z" transform="translate(-86.08 -238.36)"/><path class="cls-3" d="M484,452.72c-11.35,5.83-26,8.91-44.56,7.28-27.44-2.42-39.71,11.15-45.55,24.05q1.44,2.58,3.26,5.4c46.49,72.57-80-28.88-80-64.5s-36-114.5,80-64.5c14.52,6.26,26.65,11.41,36.77,15.69A222.2,222.2,0,0,1,484,452.72Z" transform="translate(-86.08 -238.36)"/><path class="cls-4" d="M499.36,555.56h0c-4.19,56.79-28.47,107.53-65.26,144.14-12.06-31.81-27.21-69-19.58-86.58-28.12-.78-61.33-3.81-75.3-8.93-28.15-24.24-26.36-43.53,0-58.78,10-5.15,68.32-40.7,154.48,0A55.46,55.46,0,0,1,499.36,555.56Z" transform="translate(-86.08 -238.36)"/><path class="cls-5" d="M189.35,435.36c-4.08,1.6-8.73,3.85-13.68,6.35a46.56,46.56,0,0,1,.4,6.17c0,26.26-21.64,47.55-48.32,47.55a50.11,50.11,0,0,1-6.17-.38c-.2,2.1,1.35,6.16-.62,6.07-19-.84-14.21,6.72-2.57,15.3-.63,1-2.63,2-1.87,2.81,6.9,7.09,15.29,6.23,24.34-1.82,8.88,15.62,41,6.25,42.6,10.11,2.16,5.16-19.08,10.11-42.6,10.11-17,0-31.58-2.34-38.44-5.74a9.86,9.86,0,0,1-3,.35c-4.7-.19-8.95-4.08-12.77-11.37,3.67-51.09,23.61-97.33,54.3-132.8q2.81.39,5.66.84c4.33,8.24,12.39,13.77,21.62,13.77a23.53,23.53,0,0,0,16.41-6.8l4.67.84C258.93,405.67,271.32,417.79,189.35,435.36Z" transform="translate(-86.08 -238.36)"/><path class="cls-6" d="M277,616.45c0,29.76-27.44,79.64-35.53,53.89-1.2-3.83-2.26-8.42-3.31-13.32-3-14-5.92-30.49-12.1-39-12.05,3-30.89,7.88-32.33-3.82-4.95-40.51-15-60.37-6.36-73.74,2.23-3.43,4.12-7.13,6.17-10.48a36.36,36.36,0,0,1,16.18-3.86c9.75,0,18.86,4,26.54,11,0,.22-.09.45-.14.67a6.26,6.26,0,0,1,1.14.25,58.92,58.92,0,0,1,7.86,9.3,38.58,38.58,0,0,1,2.27,13.46c0,.83,0,1.66-.07,2.48a26.66,26.66,0,0,1,7.19,3C267.68,574.19,277,593.68,277,616.45Z" transform="translate(-86.08 -238.36)"/><path class="cls-7" d="M315.72,261A22.68,22.68,0,0,1,293,283.72a22.28,22.28,0,0,1-5-.56,22.68,22.68,0,0,1,0-44.24,22.28,22.28,0,0,1,5-.56A22.68,22.68,0,0,1,315.72,261Z" transform="translate(-86.08 -238.36)"/><ellipse class="cls-8" cx="201.96" cy="22.68" rx="17.68" ry="22.12"/></svg>