<svg id="visual" viewBox="0 0 900 600" width="900" height="600" xmlns="http://www.w3.org/2000/svg" xmlns:xlink="http://www.w3.org/1999/xlink" version="1.1"><path d="M0 55L82 139L164 169L245 91L327 109L409 109L491 67L573 115L655 133L736 67L818 61L900 55L900 0L818 0L736 0L655 0L573 0L491 0L409 0L327 0L245 0L164 0L82 0L0 0Z" fill="#00cc8e"></path><path d="M0 337L82 277L164 373L245 295L327 265L409 331L491 313L573 217L655 307L736 211L818 271L900 229L900 53L818 59L736 65L655 131L573 113L491 65L409 107L327 107L245 89L164 167L82 137L0 53Z" fill="#00b98a"></path><path d="M0 379L82 313L164 451L245 331L327 331L409 373L491 415L573 295L655 409L736 277L818 313L900 331L900 227L818 269L736 209L655 305L573 215L491 311L409 329L327 263L245 293L164 371L82 275L0 335Z" fill="#00a784"></path><path d="M0 511L82 439L164 499L245 445L327 427L409 493L491 511L573 415L655 463L736 367L818 385L900 385L900 329L818 311L736 275L655 407L573 293L491 413L409 371L327 329L245 329L164 449L82 311L0 377Z" fill="#00957c"></path><path d="M0 601L82 601L164 601L245 601L327 601L409 601L491 601L573 601L655 601L736 601L818 601L900 601L900 383L818 383L736 365L655 461L573 413L491 509L409 491L327 425L245 443L164 497L82 437L0 509Z" fill="#038373"></path></svg>